<?xml version="1.0" encoding="utf-8"?>
<!-- Generator: Adobe Illustrator 25.1.0, SVG Export Plug-In . SVG Version: 6.00 Build 0)  -->
<svg version="1.1" id="Layer_1" xmlns="http://www.w3.org/2000/svg" xmlns:xlink="http://www.w3.org/1999/xlink" x="0px" y="0px"
	 viewBox="0 0 235.3 258" style="enable-background:new 0 0 235.3 258;" xml:space="preserve">
<style type="text/css">
	.st0{opacity:0.95;}
	.st1{fill:none;}
	.st2{fill:url(#SVGID_1_);}
	.st3{fill:url(#SVGID_2_);}
	.st4{fill:url(#SVGID_3_);}
	.st5{fill:url(#SVGID_4_);}
	.st6{fill:url(#SVGID_5_);}
	.st7{fill:url(#SVGID_6_);}
	.st8{fill:#111111;}
</style>
<g class="st0">
	<path class="st1" d="M142,94.2c-0.1-0.1-0.2-0.1-0.2-0.2C141.9,94.1,142,94.2,142,94.2z"/>
	<path class="st1" d="M139.8,92.6c0.1,0.1,0.2,0.2,0.3,0.2c-0.2-0.1-0.3-0.2-0.5-0.3C139.7,92.5,139.8,92.6,139.8,92.6z"/>
	<path class="st1" d="M137.9,91.3c0.1,0.1,0.2,0.1,0.3,0.2c-0.2-0.1-0.4-0.2-0.5-0.4C137.7,91.2,137.8,91.3,137.9,91.3z"/>
	<path class="st1" d="M133.8,77.9c-0.6-0.7-1.3-1.4-2-2.1l0,0C132.5,76.5,133.2,77.2,133.8,77.9L133.8,77.9z"/>
	<path class="st1" d="M135.7,80.1c-0.5-0.6-1-1.2-1.6-1.8l0,0C134.7,78.9,135.2,79.5,135.7,80.1L135.7,80.1z"/>
	<path class="st1" d="M127,85.3C127,85.3,127.1,85.4,127,85.3c-0.1,0-0.2-0.1-0.3-0.1C126.9,85.3,126.9,85.3,127,85.3z"/>
	<path class="st1" d="M129,86.3c0.1,0,0.2,0.1,0.2,0.1c-0.1-0.1-0.3-0.1-0.4-0.2C128.9,86.2,128.9,86.2,129,86.3z"/>
	<path class="st1" d="M131,87.3c0.1,0.1,0.3,0.1,0.4,0.2C131.2,87.4,131.1,87.3,131,87.3C130.9,87.2,130.9,87.2,131,87.3z"/>
	<path class="st1" d="M135.7,89.9c0.1,0.1,0.3,0.2,0.4,0.2c-0.2-0.1-0.3-0.2-0.5-0.3C135.6,89.9,135.6,89.9,135.7,89.9z"/>
	<path class="st1" d="M133.5,88.7C133.5,88.7,133.6,88.7,133.5,88.7C133.5,88.6,133.5,88.6,133.5,88.7
		C133.5,88.6,133.5,88.6,133.5,88.7z"/>
	<path class="st1" d="M144.5,96.1c-0.2-0.1-0.4-0.3-0.5-0.4C144.1,95.8,144.3,96,144.5,96.1z"/>
	<path class="st1" d="M127,70.9c-0.4-0.4-0.9-0.8-1.3-1.2l0,0C126.1,70.1,126.5,70.5,127,70.9L127,70.9z"/>
	<path class="st1" d="M102.5,53.6c0.7,0.3,1.4,0.7,2,1.1C103.9,54.3,103.2,53.9,102.5,53.6z"/>
	<path class="st1" d="M107.3,56.1c0.7,0.4,1.3,0.8,2,1.2C108.6,56.9,107.9,56.5,107.3,56.1z"/>
	<path class="st1" d="M100.4,52.5c0.6,0.3,1.1,0.5,1.7,0.8C101.5,53,101,52.8,100.4,52.5z"/>
	<path class="st1" d="M97.7,51.3c0.7,0.3,1.4,0.6,2.1,0.9C99.1,51.9,98.4,51.6,97.7,51.3z"/>
	<path class="st1" d="M105.1,54.9c0.5,0.3,1.1,0.6,1.6,0.9C106.2,55.5,105.7,55.2,105.1,54.9z"/>
	<path class="st1" d="M124.8,68.9c-0.4-0.4-0.9-0.8-1.3-1.2l0,0C123.9,68.1,124.4,68.5,124.8,68.9L124.8,68.9z"/>
	<path class="st1" d="M95.5,50.4c0.6,0.2,1.2,0.5,1.8,0.8C96.7,50.9,96.1,50.6,95.5,50.4z"/>
	<path class="st1" d="M114.1,60.4c0.6,0.4,1.1,0.8,1.7,1.2C115.2,61.2,114.7,60.8,114.1,60.4z"/>
	<path class="st1" d="M111.9,58.9c0.7,0.4,1.3,0.9,2,1.3C113.2,59.8,112.5,59.4,111.9,58.9z"/>
	<path class="st1" d="M109.7,57.6c0.6,0.3,1.1,0.7,1.6,1C110.8,58.2,110.2,57.9,109.7,57.6z"/>
	<path class="st1" d="M116.3,62c0.6,0.5,1.3,0.9,1.9,1.4C117.6,63,117,62.5,116.3,62z"/>
	<path class="st1" d="M98.8,78.3L98.8,78.3C98.7,78.3,98.8,78.3,98.8,78.3z"/>
	<path class="st1" d="M86.6,78.4c0.1,0,0.3,0,0.4,0C86.8,78.4,86.7,78.4,86.6,78.4S86.5,78.4,86.6,78.4z"/>
	<path class="st1" d="M92.1,78.2L92.1,78.2c-0.2,0-0.4,0-0.7,0C91.6,78.2,91.9,78.2,92.1,78.2z"/>
	<path class="st1" d="M84.4,78.6c0.1,0,0.2,0,0.3,0c-0.2,0-0.4,0-0.6,0.1C84.2,78.6,84.3,78.6,84.4,78.6z"/>
	<path class="st1" d="M96.6,78.2c-0.2,0-0.5,0-0.7,0C96.2,78.2,96.4,78.2,96.6,78.2z"/>
	<path class="st1" d="M89.4,78.2c-0.1,0-0.1,0-0.2,0C89.3,78.2,89.3,78.2,89.4,78.2z"/>
	<path class="st1" d="M58,215.1c-3.5-0.8-6.9-1.8-10.1-3C51.2,213.3,54.6,214.3,58,215.1z"/>
	<path class="st1" d="M47.9,212.1c-4.1-1.5-8.1-3.3-11.9-5.3C39.8,208.9,43.8,210.6,47.9,212.1z"/>
	<path class="st1" d="M80,79.1L80,79.1c-0.1,0-0.3,0.1-0.5,0.1C79.7,79.2,79.9,79.2,80,79.1z"/>
	<path class="st1" d="M82.3,78.8c0.1,0,0.1,0,0.2,0c-0.2,0-0.4,0-0.6,0.1C82,78.9,82.1,78.9,82.3,78.8z"/>
	<path class="st1" d="M93.7,78.2c0.2,0,0.5,0,0.7,0C94.2,78.2,93.9,78.2,93.7,78.2z"/>
	<path class="st1" d="M106.1,79.1L106.1,79.1c-0.1,0-0.1,0-0.2,0C106,79.1,106.1,79.1,106.1,79.1z"/>
	<path class="st1" d="M101.2,78.5c0.1,0,0.1,0,0.2,0c-0.1,0-0.2,0-0.3,0C101.1,78.5,101.1,78.5,101.2,78.5z"/>
	<path class="st1" d="M115.1,81c0.2,0,0.3,0.1,0.5,0.1C115.4,81.1,115.2,81.1,115.1,81C115,81,115.1,81,115.1,81z"/>
	<path class="st1" d="M117.9,81.9c-0.1,0-0.2-0.1-0.3-0.1C117.8,81.8,117.9,81.9,117.9,81.9z"/>
	<path class="st1" d="M122.6,83.5c-0.2-0.1-0.4-0.2-0.7-0.2C122.2,83.3,122.4,83.4,122.6,83.5z"/>
	<path class="st1" d="M120.4,82.7c-0.2-0.1-0.4-0.2-0.6-0.2C120,82.6,120.2,82.6,120.4,82.7z"/>
	<path class="st1" d="M113,80.5c0.1,0,0.3,0.1,0.4,0.1c-0.2,0-0.4-0.1-0.6-0.1C112.8,80.5,112.9,80.5,113,80.5z"/>
	<path class="st1" d="M124.7,84.3c-0.2-0.1-0.3-0.1-0.5-0.2C124.4,84.2,124.5,84.3,124.7,84.3z"/>
	<path class="st1" d="M103.3,78.8c0.1,0,0.2,0,0.4,0C103.5,78.8,103.4,78.8,103.3,78.8C103.2,78.8,103.3,78.8,103.3,78.8z"/>
	<path class="st1" d="M110.6,80c0.2,0,0.3,0.1,0.5,0.1C110.9,80.1,110.7,80,110.6,80C110.6,80,110.6,80,110.6,80z"/>
	<path class="st1" d="M108.4,79.5L108.4,79.5L108.4,79.5z"/>
	<path class="st1" d="M69.5,44.3c0.8,0.1,1.6,0.1,2.3,0.2C71.1,44.4,70.3,44.4,69.5,44.3z"/>
	<path class="st1" d="M186.2,84.8c0,1.7,0,3.4-0.1,5.1C186.1,88.2,186.2,86.5,186.2,84.8z"/>
	<path class="st1" d="M224.6,69.3c-1.4-1.9-3.3-3.6-5.7-5.1c-2.7-1.7-5.2-3.3-7.7-4.9c2.5,1.6,5.1,3.2,7.7,4.9
		C221.3,65.7,223.2,67.4,224.6,69.3z"/>
	<path class="st1" d="M182.6,43.9c-1.9-0.8-3.9-1.5-6-2.3l0,0C178.6,42.4,180.6,43.2,182.6,43.9z"/>
	<path class="st1" d="M184.2,105c0.3-1.7,0.6-3.3,0.9-5C184.9,101.7,184.6,103.4,184.2,105z"/>
	<path class="st1" d="M185.1,100c0.2-1.7,0.4-3.4,0.6-5.1C185.5,96.7,185.3,98.4,185.1,100z"/>
	<path class="st1" d="M183.1,110c0.4-1.6,0.8-3.3,1.1-4.9C183.9,106.7,183.5,108.3,183.1,110z"/>
	<path class="st1" d="M123.2,6.8c0.2,0,0.4,0,0.7,0C123.7,6.8,123.4,6.8,123.2,6.8z"/>
	<path class="st1" d="M122,6.8c-0.2,0-0.4,0-0.5,0c0.3,0,0.5,0,0.8,0C122.2,6.8,122.1,6.8,122,6.8z"/>
	<path class="st1" d="M118.6,7.1c0.3-0.1,0.6-0.1,0.9-0.2C119.1,7,118.8,7,118.6,7.1z"/>
	<path class="st1" d="M116.9,7.5c0.4-0.1,0.8-0.3,1.2-0.4C117.7,7.3,117.3,7.4,116.9,7.5z"/>
	<path class="st1" d="M120,6.9c0.3,0,0.6-0.1,0.9-0.1C120.6,6.8,120.3,6.9,120,6.9z"/>
	<path class="st1" d="M132.3,170.3h0.1l0,0C132.4,170.3,132.4,170.3,132.3,170.3L132.3,170.3z"/>
	<path class="st1" d="M198.7,51.7c1.7,0.9,3.4,1.9,5,2.9C202,53.6,200.4,52.7,198.7,51.7z"/>
	<path class="st1" d="M190.9,47.7c1.8,0.9,3.5,1.8,5.2,2.7C194.4,49.4,192.7,48.5,190.9,47.7z"/>
	<path class="st1" d="M124.8,7c0.2,0,0.4,0.1,0.6,0.1C125.3,7,125,7,124.8,7z"/>
	<path class="st1" d="M185.4,45.1c1.9,0.8,3.7,1.6,5.5,2.5C189.1,46.8,187.3,45.9,185.4,45.1z"/>
	<path class="st1" d="M203.7,54.6c2.5,1.5,5,3,7.5,4.6C208.7,57.7,206.2,56.1,203.7,54.6z"/>
	<path class="st1" d="M139.8,170.3c0.1,0,0.1,0,0.2,0c-0.1,0-0.2,0-0.4,0C139.7,170.3,139.8,170.3,139.8,170.3z"/>
	<path class="st1" d="M224.6,69.3c1.4,1.9,2.4,4,3.1,6.3C227.1,73.2,226.1,71.1,224.6,69.3z"/>
	<path class="st1" d="M136.3,170.4L136.3,170.4c-0.2,0-0.3,0-0.5,0C135.9,170.4,136.1,170.4,136.3,170.4z"/>
	<path class="st1" d="M158.1,167.9L158.1,167.9L158.1,167.9L158.1,167.9z"/>
	<path class="st1" d="M53.4,44.8c0.3,0,0.7-0.1,1-0.1C54.1,44.7,53.8,44.8,53.4,44.8z"/>
	<path class="st1" d="M77.8,45.3c0.6,0.1,1.2,0.2,1.8,0.3C79,45.5,78.4,45.4,77.8,45.3z"/>
	<path class="st1" d="M72.5,44.6c0.6,0.1,1.3,0.1,1.9,0.2C73.8,44.7,73.1,44.7,72.5,44.6z"/>
	<path class="st1" d="M74.9,44.9c0.8,0.1,1.5,0.2,2.3,0.3C76.4,45.1,75.7,45,74.9,44.9z"/>
	<path class="st1" d="M36,206.9c-1.5-0.8-3-1.6-4.5-2.5C32.9,205.2,34.4,206.1,36,206.9z"/>
	<path class="st1" d="M67.1,44.2c0.7,0,1.4,0.1,2.2,0.1C68.5,44.3,67.8,44.2,67.1,44.2z"/>
	<path class="st1" d="M80.2,45.8c0.7,0.1,1.5,0.3,2.2,0.5C81.7,46.1,81,45.9,80.2,45.8z"/>
	<path class="st1" d="M88.1,47.7c0.6,0.2,1.2,0.4,1.8,0.6C89.3,48.1,88.7,47.9,88.1,47.7z"/>
	<path class="st1" d="M64.2,44.1c0.7,0,1.5,0,2.2,0C65.7,44.2,64.9,44.1,64.2,44.1z"/>
	<path class="st1" d="M90.5,48.5c0.7,0.2,1.4,0.5,2.1,0.7C92,49,91.2,48.8,90.5,48.5z"/>
	<path class="st1" d="M85.4,47c0.7,0.2,1.5,0.4,2.2,0.6C86.9,47.4,86.2,47.2,85.4,47z"/>
	<path class="st1" d="M83,46.4c0.6,0.1,1.2,0.3,1.8,0.4C84.2,46.7,83.6,46.5,83,46.4z"/>
	<path class="st1" d="M39.4,47.8c0.3-0.1,0.7-0.2,1-0.3C40.1,47.6,39.8,47.7,39.4,47.8z"/>
	<path class="st1" d="M126.5,7.3c0.2,0,0.3,0.1,0.5,0.1C126.8,7.4,126.6,7.3,126.5,7.3z"/>
	<path class="st1" d="M64,44.1c-0.1,0-0.2,0-0.3,0C63.8,44.1,63.9,44.1,64,44.1L64,44.1z"/>
	<path class="st1" d="M42.7,46.9c0.4-0.1,0.8-0.2,1.1-0.3C43.5,46.7,43.1,46.8,42.7,46.9z"/>
	<path class="st1" d="M172.1,58.9c0.6,2.2,1.2,4.5,1.7,6.8C173.3,63.5,172.8,61.2,172.1,58.9z"/>
	<path class="st1" d="M174.5,69.2c0.4,2.3,0.7,4.6,0.9,7C175.2,73.8,174.9,71.5,174.5,69.2z"/>
	<path class="st1" d="M46,46.1c0.3-0.1,0.7-0.2,1-0.2C46.7,45.9,46.4,46,46,46.1z"/>
	<path class="st1" d="M56.6,44.5c0.4,0,0.8-0.1,1.1-0.1C57.4,44.4,57,44.4,56.6,44.5z"/>
	<path class="st1" d="M59.9,44.3c0.3,0,0.7,0,1,0C60.6,44.2,60.2,44.2,59.9,44.3z"/>
	<path class="st1" d="M92.9,49.4c0.7,0.2,1.3,0.5,2,0.7C94.2,49.8,93.6,49.6,92.9,49.4z"/>
	<path class="st1" d="M50,45.3c0.1,0,0.2,0,0.2,0S50.1,45.3,50,45.3z"/>
	<path class="st1" d="M86.1,97.1c0.6-0.4,1.1-0.8,1.7-1.2l0,0C87.2,96.2,86.7,96.7,86.1,97.1L86.1,97.1z"/>
	<path class="st1" d="M190.6,211.4c-1,0.2-2,0.4-3,0.6C188.6,211.8,189.6,211.6,190.6,211.4z"/>
	<path class="st1" d="M197.2,209.5c-2,0.7-4,1.2-6.1,1.7C193.2,210.8,195.2,210.2,197.2,209.5z"/>
	<path class="st1" d="M200.7,208.3c-1,0.4-1.9,0.7-2.9,1C198.7,209,199.7,208.7,200.7,208.3z"/>
	<path class="st1" d="M139.5,218.3c1.9,0.7,3.8,1.3,5.8,1.8C143.3,219.5,141.4,218.9,139.5,218.3z"/>
	<path class="st1" d="M103.3,197.3c-3-2.6-5.8-5.5-8.4-8.4C97.5,191.8,100.3,194.7,103.3,197.3z"/>
	<path class="st1" d="M204.2,206.9c-1,0.4-2,0.8-3,1.2C202.2,207.7,203.2,207.3,204.2,206.9z"/>
	<path class="st1" d="M176.8,213.4c-1,0.1-2.1,0.1-3.1,0.1C174.7,213.5,175.7,213.5,176.8,213.4z"/>
	<path class="st1" d="M171.6,213.6c0.7,0,1.3,0,2,0c-1,0-2,0-3,0C171,213.6,171.3,213.6,171.6,213.6z"/>
	<path class="st1" d="M187.1,212.1c-1,0.2-2.1,0.4-3.1,0.5C185,212.5,186,212.3,187.1,212.1z"/>
	<path class="st1" d="M184,212.7c-1,0.2-2.1,0.3-3.1,0.4C181.9,212.9,182.9,212.8,184,212.7z"/>
	<path class="st1" d="M180.3,213.1c-1,0.1-2,0.2-3,0.3C178.3,213.3,179.3,213.2,180.3,213.1z"/>
	<path class="st1" d="M107.8,201.1c2.3,1.9,4.8,3.6,7.3,5.3C112.6,204.7,110.2,203,107.8,201.1z"/>
	<path class="st1" d="M74.4,144.8c-0.1-0.6-0.2-1.2-0.3-1.8l0,0C74.2,143.7,74.3,144.2,74.4,144.8L74.4,144.8z"/>
	<path class="st1" d="M74.7,146.4L74.7,146.4C74.7,146.5,74.7,146.5,74.7,146.4C74.7,146.5,74.7,146.5,74.7,146.4z"/>
	<path class="st1" d="M74.1,121.7L74.1,121.7L74.1,121.7z"/>
	<path class="st1" d="M115.1,206.4c6.7,4.4,13.9,8,21.5,10.9C129,214.4,121.8,210.8,115.1,206.4z"/>
	<path class="st1" d="M75.7,151.5c-0.1-0.6-0.3-1.1-0.4-1.7C75.4,150.4,75.6,151,75.7,151.5L75.7,151.5z"/>
	<path class="st1" d="M74,141.4c-0.1-0.6-0.1-1.2-0.2-1.8l0,0C73.9,140.2,73.9,140.8,74,141.4L74,141.4z"/>
	<path class="st1" d="M169.9,213.5c-1,0-2-0.1-3.1-0.1C167.8,213.5,168.8,213.5,169.9,213.5z"/>
	<path class="st1" d="M87.7,179.4c1.1,1.6,2.2,3.3,3.4,4.8C90,182.7,88.8,181.1,87.7,179.4z"/>
	<path class="st1" d="M76.9,156.3L76.9,156.3L76.9,156.3L76.9,156.3z"/>
	<path class="st1" d="M76.5,154.8c-0.2-0.6-0.3-1.1-0.5-1.7l0,0C76.2,153.7,76.3,154.2,76.5,154.8L76.5,154.8z"/>
	<path class="st1" d="M73.7,137.9c0-0.6-0.1-1.1-0.1-1.7C73.6,136.8,73.7,137.3,73.7,137.9L73.7,137.9z"/>
	<path class="st1" d="M116,194.4c-0.8-0.6-1.6-1.2-2.4-1.9C114.4,193.2,115.2,193.8,116,194.4z"/>
	<path class="st1" d="M118.5,196.3c-0.7-0.5-1.4-1-2-1.5C117.2,195.3,117.8,195.8,118.5,196.3z"/>
	<path class="st1" d="M121.7,198.4c-0.8-0.5-1.7-1.1-2.5-1.7C120.1,197.3,120.9,197.9,121.7,198.4z"/>
	<path class="st1" d="M124.3,200.1c-0.9-0.5-1.7-1.1-2.6-1.6C122.6,199,123.5,199.6,124.3,200.1z"/>
	<path class="st1" d="M130.4,203.5c-0.9-0.5-1.8-0.9-2.7-1.4C128.6,202.6,129.5,203,130.4,203.5z"/>
	<path class="st1" d="M127.2,201.8c-0.7-0.4-1.5-0.8-2.2-1.3C125.8,201,126.5,201.4,127.2,201.8z"/>
	<path class="st1" d="M166.8,213.4c-1-0.1-2-0.1-3-0.2C164.8,213.3,165.8,213.4,166.8,213.4z"/>
	<path class="st1" d="M105.6,185.1c-0.7-0.7-1.4-1.5-2.1-2.3C104.2,183.6,104.9,184.3,105.6,185.1z"/>
	<path class="st1" d="M108,187.5c-0.6-0.6-1.2-1.2-1.8-1.8C106.8,186.3,107.4,186.9,108,187.5z"/>
	<path class="st1" d="M110.6,189.9c-0.8-0.7-1.5-1.4-2.2-2.1C109.1,188.6,109.9,189.3,110.6,189.9z"/>
	<path class="st1" d="M113.1,192c-0.6-0.5-1.2-1.1-1.9-1.6C111.8,191,112.4,191.5,113.1,192z"/>
	<path class="st1" d="M156.1,212.2c-0.8-0.1-1.6-0.3-2.4-0.5C154.5,211.9,155.3,212,156.1,212.2z"/>
	<path class="st1" d="M153,211.5c-1-0.2-2-0.4-2.9-0.7C151,211.1,152,211.3,153,211.5z"/>
	<path class="st1" d="M162.9,213.1c-0.8-0.1-1.7-0.2-2.5-0.3C161.2,212.9,162.1,213,162.9,213.1z"/>
	<path class="st1" d="M159.8,212.8c-1-0.1-2-0.3-3-0.5C157.9,212.5,158.8,212.6,159.8,212.8z"/>
	<path class="st1" d="M31.4,204.3c-1.5-0.9-3-1.8-4.4-2.7C28.5,202.5,29.9,203.5,31.4,204.3z"/>
	<path class="st1" d="M146.2,209.8c-1-0.3-1.9-0.6-2.9-0.9C144.3,209.2,145.3,209.5,146.2,209.8z"/>
	<path class="st1" d="M136.8,206.4c-0.9-0.4-1.8-0.8-2.8-1.2C134.9,205.6,135.8,206,136.8,206.4z"/>
	<path class="st1" d="M139.6,207.6c-0.8-0.3-1.6-0.6-2.3-0.9C138.1,207,138.9,207.3,139.6,207.6z"/>
	<path class="st1" d="M133.3,204.9c-0.7-0.3-1.4-0.7-2.2-1C131.9,204.2,132.6,204.5,133.3,204.9z"/>
	<path class="st1" d="M143.2,208.9c-0.9-0.3-1.9-0.6-2.8-1C141.4,208.2,142.3,208.6,143.2,208.9z"/>
	<path class="st1" d="M149.5,210.7c-0.8-0.2-1.6-0.4-2.4-0.7C147.9,210.3,148.7,210.5,149.5,210.7z"/>
	<path class="st1" d="M101.1,87.7L101.1,87.7c0.1,0,0.2,0,0.2,0.1C101.3,87.7,101.2,87.7,101.1,87.7z"/>
	<path class="st1" d="M96.1,87.5c-0.1,0-0.1,0-0.2,0h-0.1c-0.2,0-0.4,0-0.6,0c0.3,0,0.7,0,1,0C96.3,87.5,96.2,87.5,96.1,87.5z"/>
	<path class="st1" d="M98.4,87.5c-0.1,0-0.3,0-0.4,0c0.2,0,0.4,0,0.6,0C98.5,87.5,98.4,87.5,98.4,87.5z"/>
	<path class="st1" d="M93.9,87.5c-0.2,0-0.4,0-0.7,0h-0.1c0.3,0,0.7,0,1,0C94,87.5,94,87.5,93.9,87.5z"/>
	<path class="st1" d="M91.8,87.6c-0.3,0-0.5,0-0.8,0c-0.1,0-0.1,0-0.2,0C91.1,87.6,91.5,87.6,91.8,87.6
		C91.8,87.6,91.8,87.6,91.8,87.6z"/>
	<path class="st1" d="M89.4,94.8c0.4-0.3,0.8-0.5,1.2-0.8C90.2,94.3,89.8,94.6,89.4,94.8L89.4,94.8z"/>
	<path class="st1" d="M78.5,103.1L78.5,103.1c-0.1,0.1-0.2,0.2-0.3,0.3C78.3,103.3,78.4,103.2,78.5,103.1z"/>
	<path class="st1" d="M89.6,87.7c-0.2,0-0.5,0-0.7,0.1c-0.1,0-0.2,0-0.3,0C89,87.8,89.3,87.8,89.6,87.7L89.6,87.7z"/>
	<path class="st1" d="M79.9,101.9c0.5-0.4,1-0.9,1.6-1.3l0,0C81,101,80.4,101.4,79.9,101.9L79.9,101.9z"/>
	<path class="st1" d="M84.6,98.1L84.6,98.1c-0.1,0.1-0.3,0.2-0.4,0.3C84.3,98.4,84.4,98.3,84.6,98.1z"/>
	<path class="st1" d="M82.9,99.4c0.4-0.3,0.8-0.6,1.2-0.9C83.7,98.8,83.3,99.1,82.9,99.4L82.9,99.4z"/>
	<path class="st1" d="M71.2,91.4L71.2,91.4c0.1-0.1,0.2-0.1,0.4-0.2C71.5,91.3,71.3,91.4,71.2,91.4z"/>
	<path class="st1" d="M73.3,90.8c-0.1,0-0.1,0-0.2,0.1c0.2-0.1,0.5-0.1,0.7-0.2C73.7,90.7,73.5,90.7,73.3,90.8z"/>
	<path class="st1" d="M6.5,168.2c0-0.5,0-1.1,0-1.6C6.4,167.1,6.4,167.7,6.5,168.2z"/>
	<path class="st1" d="M75.4,90.2c-0.1,0-0.2,0-0.2,0.1c0.3-0.1,0.6-0.2,0.9-0.2C75.9,90.1,75.7,90.1,75.4,90.2z"/>
	<path class="st1" d="M69,92.1C69,92.1,69,92.2,69,92.1c0,0,0.1,0,0.2-0.1C69.2,92.1,69.1,92.1,69,92.1z"/>
	<path class="st1" d="M87.1,88c-0.1,0-0.2,0-0.4,0c-0.1,0-0.3,0-0.4,0.1c0.3,0,0.7-0.1,1-0.1C87.3,88,87.2,88,87.1,88z"/>
	<path class="st1" d="M82.5,88.7c-0.2,0-0.4,0.1-0.5,0.1c0.3-0.1,0.6-0.1,0.9-0.2C82.8,88.6,82.7,88.6,82.5,88.7z"/>
	<path class="st1" d="M84.7,88.3c-0.2,0-0.3,0.1-0.5,0.1c0.3-0.1,0.7-0.1,1-0.1C85,88.3,84.8,88.3,84.7,88.3z"/>
	<path class="st1" d="M78.1,89.6c-0.2,0-0.4,0.1-0.6,0.1h-0.1c0.3-0.1,0.7-0.2,1-0.2C78.3,89.5,78.2,89.5,78.1,89.6z"/>
	<path class="st1" d="M80.4,89.1c-0.2,0-0.5,0.1-0.7,0.2l0,0c0.3-0.1,0.7-0.1,1-0.2C80.6,89,80.5,89,80.4,89.1z"/>
	<path class="st1" d="M74.1,121.6C74.1,121.6,74,121.7,74.1,121.6C74,121.7,74,121.7,74.1,121.6C74.1,121.7,74.1,121.6,74.1,121.6
		L74.1,121.6z"/>
	<path class="st1" d="M111.8,251.2c-0.1,0-0.1,0-0.2,0C111.7,251.2,111.7,251.2,111.8,251.2z"/>
	<path class="st1" d="M113.5,251.2c0.2,0,0.3,0,0.5,0C113.8,251.2,113.6,251.2,113.5,251.2L113.5,251.2z"/>
	<path class="st1" d="M111,251.1c-0.1,0-0.2,0-0.3,0C110.8,251.1,110.9,251.1,111,251.1z"/>
	<path class="st1" d="M116.1,251.1c-0.1,0-0.3,0-0.4,0C115.8,251.1,116,251.1,116.1,251.1z"/>
	<path class="st1" d="M115.5,251.2c-0.2,0-0.3,0-0.5,0C115.1,251.2,115.3,251.2,115.5,251.2z"/>
	<path class="st1" d="M114.8,251.2c-0.2,0-0.5,0-0.7,0C114.4,251.2,114.6,251.2,114.8,251.2z"/>
	<path class="st1" d="M77,104.5c0.4-0.4,0.8-0.8,1.2-1.1C77.8,103.7,77.4,104.1,77,104.5L77,104.5z"/>
	<path class="st1" d="M108,250.6c-0.1,0-0.1,0-0.2-0.1C107.8,250.5,107.9,250.5,108,250.6z"/>
	<path class="st1" d="M108.7,250.8c-0.1,0-0.2,0-0.3-0.1C108.5,250.7,108.6,250.7,108.7,250.8z"/>
	<path class="st1" d="M109.4,250.9c-0.1,0-0.2,0-0.3-0.1C109.2,250.9,109.3,250.9,109.4,250.9z"/>
	<path class="st1" d="M110.2,251c-0.1,0-0.2,0-0.3,0C110,251,110.1,251,110.2,251z"/>
	<path class="st1" d="M112.8,251.2c-0.1,0-0.1,0-0.2,0C112.7,251.2,112.8,251.2,112.8,251.2z"/>
	<path class="st1" d="M118,250.7c-0.2,0-0.3,0.1-0.5,0.1C117.6,250.8,117.8,250.8,118,250.7z"/>
	<path class="st1" d="M101.4,88.2c0.1-0.2,0-0.3-0.1-0.5C101.4,87.9,101.5,88,101.4,88.2z"/>
	<path class="st1" d="M74.3,107.2L74.3,107.2c0.5-0.5,1-1,1.4-1.5l0,0C75.2,106.2,74.8,106.7,74.3,107.2z"/>
	<path class="st1" d="M71.7,110c0.5-0.5,0.9-1,1.4-1.5l0,0C72.6,109,72.1,109.5,71.7,110L71.7,110z"/>
	<path class="st1" d="M116.7,251c-0.1,0-0.2,0-0.4,0.1C116.5,251,116.6,251,116.7,251z"/>
	<path class="st1" d="M70.5,111.4L70.5,111.4c-0.1,0.1-0.1,0.1-0.2,0.2C70.4,111.5,70.4,111.4,70.5,111.4z"/>
	<path class="st1" d="M117.3,250.9c-0.1,0-0.2,0.1-0.4,0.1C117.1,251,117.2,250.9,117.3,250.9z"/>
	
		<linearGradient id="SVGID_1_" gradientUnits="userSpaceOnUse" x1="128.6" y1="153.9" x2="228.8104" y2="153.9" gradientTransform="matrix(1 0 0 -1 0 260)">
		<stop  offset="6.926126e-08" style="stop-color:#D3D3D3"/>
		<stop  offset="1" style="stop-color:#BABABA"/>
	</linearGradient>
	<path class="st2" d="M179.6,49.1c0.6,1.7,1.2,3.3,1.7,5c0.8,2.5,1.5,5,2.1,7.6c0.8,3.4,1.4,6.8,1.9,10.3c0.6,4.3,0.9,8.6,0.9,12.9
		c0,1.7,0,3.4-0.1,5.1s-0.2,3.4-0.4,5.1s-0.4,3.4-0.6,5.1c-0.2,1.7-0.5,3.3-0.9,5c-0.3,1.7-0.7,3.3-1.1,4.9c-1,4.1-2.3,8.1-3.9,11.9
		c-6,14.9-15.8,28-29.3,37.4l-0.3,0.4v-0.2c-6.2,4.3-13.2,7.9-21,10.5c0.7,0.1,1.4,0.1,2.1,0.2c0.3,0,0.5,0,0.8,0s0.6,0,0.8,0h0.1
		c0.1,0,0.2,0,0.3,0c0.3,0,0.6,0,0.9,0c0.4,0,0.7,0,1.1,0c0.3,0,0.6,0,1,0c0.2,0,0.3,0,0.5,0s0.4,0,0.6,0c0.9,0,1.8,0,2.8,0
		c0.1,0,0.2,0,0.4,0c0.1,0,0.2,0,0.3,0c0.9,0,1.8-0.1,2.7-0.1c0,0,0,0,0.1,0c0.9-0.1,1.8-0.1,2.7-0.2c0.2,0,0.5,0,0.7-0.1
		c0.9-0.1,1.8-0.2,2.7-0.3l0,0c0.9-0.1,1.8-0.3,2.7-0.4c0.2,0,0.5-0.1,0.7-0.1c0.9-0.2,1.8-0.3,2.7-0.5l0,0c0.9-0.2,1.8-0.4,2.7-0.6
		c0,0,0,0,0.1,0c0.2,0,0.4-0.1,0.6-0.1c0.9-0.2,1.8-0.4,2.7-0.7c4.1-1.1,8-2.5,11.9-4.1c0.6-0.2,1.1-0.5,1.7-0.7
		c1.1-0.5,2.2-1,3.3-1.5s2.1-1.1,3.2-1.6c2.6-1.4,5.2-2.9,7.7-4.6c2-1.3,4-2.7,5.9-4.1c2.8-2.2,5.6-4.5,8.1-7
		c0.9-0.8,1.7-1.7,2.5-2.5c0.8-0.9,1.6-1.7,2.4-2.6c0.8-0.9,1.6-1.8,2.3-2.7c0.8-0.9,1.5-1.8,2.2-2.8c10.3-13.6,16.5-30.2,16.2-48.4
		c0-3.2-0.3-6.1-1.1-8.8c-0.7-2.3-1.7-4.4-3.1-6.3c-1.4-1.9-3.3-3.6-5.7-5.1c-2.7-1.7-5.2-3.3-7.7-4.9c-2.5-1.6-5-3.1-7.5-4.6
		c-1.7-1-3.3-2-5-2.9c-0.8-0.5-1.7-0.9-2.5-1.4c-1.7-0.9-3.4-1.8-5.2-2.7s-3.6-1.7-5.5-2.5c-0.9-0.4-1.9-0.8-2.9-1.2
		c-1.9-0.8-3.9-1.5-6-2.3C177.7,44.1,178.7,46.6,179.6,49.1z"/>
	
		<linearGradient id="SVGID_2_" gradientUnits="userSpaceOnUse" x1="59.1879" y1="73.35" x2="163.2299" y2="73.35" gradientTransform="matrix(1 0 0 -1 0 260)">
		<stop  offset="6.926126e-08" style="stop-color:#D3D3D3"/>
		<stop  offset="1" style="stop-color:#BABABA"/>
	</linearGradient>
	<path class="st3" d="M139.5,218.3c-1-0.3-1.9-0.7-2.9-1c-7.6-2.8-14.8-6.5-21.5-10.9c-2.5-1.6-4.9-3.4-7.3-5.3
		c-1.6-1.2-3.1-2.5-4.6-3.8c-3-2.6-5.8-5.5-8.4-8.4c-1.3-1.5-2.6-3-3.8-4.6c-1.2-1.6-2.4-3.2-3.4-4.8c-1.1-1.6-2.1-3.3-3.1-5.1
		c-3.2-5.6-5.8-11.7-7.7-18l0,0c-0.1-0.5-0.3-1-0.4-1.5c-0.2-0.6-0.3-1.2-0.5-1.7c-0.1-0.5-0.2-1-0.3-1.5c-0.1-0.6-0.3-1.1-0.4-1.7
		c-0.2-1.1-0.4-2.2-0.6-3.3c0,0,0,0,0-0.1c-0.1-0.5-0.2-1.1-0.2-1.6c-0.1-0.6-0.2-1.2-0.3-1.8c-0.1-0.5-0.1-1.1-0.2-1.6
		c-0.1-0.6-0.1-1.2-0.2-1.8c0-0.6-0.1-1.1-0.1-1.7c0-0.6-0.1-1.1-0.1-1.7c-0.2-4.7,0-9.5,0.5-14.5c0,0,0,0,0-0.1l0,0c0,0,0,0-0.1,0
		l0,0c-1.3,2-2.5,4-3.7,6.1c-2.8,5.2-5.1,10.7-6.9,16.3c-0.4,1.1-0.7,2.3-1,3.4c-3.1,11.7-4,24.2-2.6,36.3c0.2,1.9,0.5,3.8,0.8,5.7
		c1,5.7,2.5,11.2,4.5,16.5c1.1,3,2.4,5.9,3.8,8.7c1.1,2.2,2.4,4.4,3.7,6.6c1,1.6,2.1,3.1,3.2,4.7c0.4,0.5,0.7,1,1.1,1.5
		c1.5,2,3.2,3.9,4.9,5.7c0.4,0.5,0.9,0.9,1.3,1.4c1.3,1.3,2.7,2.6,4.2,3.9c0.5,0.4,1,0.8,1.5,1.2c1,0.8,2,1.6,3,2.3
		c0.5,0.4,1,0.7,1.6,1.1c4.2,2.9,8.8,5.4,13.8,7.4c0.2,0.1,0.4,0.1,0.6,0.2c0.1,0,0.1,0,0.2,0.1c0.1,0,0.3,0.1,0.5,0.1
		c0.1,0,0.2,0,0.3,0.1c0.1,0,0.3,0.1,0.4,0.1s0.2,0,0.3,0.1c0.2,0,0.3,0.1,0.5,0.1c0.1,0,0.2,0,0.3,0c0.2,0,0.3,0,0.5,0.1
		c0.1,0,0.2,0,0.3,0c0.2,0,0.4,0,0.6,0c0.1,0,0.1,0,0.2,0c0.3,0,0.5,0,0.8,0c0.1,0,0.1,0,0.2,0c0.2,0,0.4,0,0.6,0s0.4,0,0.5,0h0.1
		c0.2,0,0.5,0,0.7,0c0.1,0,0.1,0,0.2,0c0.2,0,0.3,0,0.5,0c0.1,0,0.2,0,0.2,0c0.1,0,0.3,0,0.4,0s0.2,0,0.2,0c0.1,0,0.3,0,0.4-0.1
		c0.1,0,0.1,0,0.2,0s0.3,0,0.4-0.1c0.1,0,0.1,0,0.2,0c0.2,0,0.3-0.1,0.5-0.1c12-3.5,40.7-20.6,45.2-27.1c-6.1-0.7-12.1-1.8-17.9-3.5
		C143.3,219.5,141.4,218.9,139.5,218.3z"/>
	
		<linearGradient id="SVGID_3_" gradientUnits="userSpaceOnUse" x1="71.7" y1="187.7" x2="175.8415" y2="187.7" gradientTransform="matrix(1 0 0 -1 0 260)">
		<stop  offset="6.926126e-08" style="stop-color:#D3D3D3"/>
		<stop  offset="1" style="stop-color:#BABABA"/>
	</linearGradient>
	<path class="st4" d="M137.6,66.5c17,18.5,26.2,43.5,21.5,71.2c3.6-4.7,6.6-9.8,9-15.1c2.8-6.1,4.8-12.6,6-19.3
		c0.2-0.8,0.3-1.7,0.4-2.5c0.2-1.2,0.4-2.3,0.5-3.5c0.3-2.3,0.5-4.7,0.6-7c0.2-4.7,0.1-9.4-0.3-14.1c-0.2-2.3-0.5-4.7-0.9-7
		c-0.2-1.2-0.4-2.3-0.7-3.5c-0.5-2.3-1-4.6-1.7-6.8c-6.5-22.5-21.3-42.1-43.7-51.1c-0.4-0.2-0.9-0.3-1.4-0.5c-0.2,0-0.3-0.1-0.5-0.1
		c-0.3-0.1-0.7-0.2-1-0.2c-0.1,0-0.4,0-0.6,0c-0.3,0-0.6-0.1-1-0.1c-0.2,0-0.4,0-0.7,0c-0.3,0-0.6,0-0.9,0s-0.5,0-0.8,0
		c-0.2,0-0.4,0-0.6,0c-0.3,0-0.6,0-0.9,0.1c-0.2,0-0.4,0-0.6,0.1c-0.3,0-0.6,0.1-0.9,0.2c-0.1,0-0.3,0.1-0.4,0.1
		c-0.4,0.1-0.9,0.2-1.2,0.4C101,13.9,83.5,21,71.7,34.3C97.5,36.8,121.2,48.6,137.6,66.5z"/>
	
		<linearGradient id="SVGID_4_" gradientUnits="userSpaceOnUse" x1="8.6994" y1="177.7" x2="150.2031" y2="177.7" gradientTransform="matrix(1 0 0 -1 0 260)">
		<stop  offset="6.926126e-08" style="stop-color:#D3D3D3"/>
		<stop  offset="1" style="stop-color:#BABABA"/>
	</linearGradient>
	<path class="st5" d="M12.7,120.8C28.1,99,52,84.1,77.3,79.6c0.7-0.1,1.5-0.2,2.2-0.4h0.1c0.2,0,0.4-0.1,0.6-0.1
		c0.5-0.1,1-0.1,1.5-0.2c0.1,0,0.1,0,0.2,0c0.2,0,0.4-0.1,0.6-0.1c0.5-0.1,1-0.1,1.4-0.2c0.1,0,0.1,0,0.2,0c0.2,0,0.4,0,0.6-0.1
		c0.5,0,1-0.1,1.5-0.1c0.1,0,0.1,0,0.2,0c0.2,0,0.3,0,0.5,0c0.7-0.1,1.5-0.1,2.2-0.1c0.1,0,0.1,0,0.2,0c0.7,0,1.3,0,2-0.1
		c0.2,0,0.5,0,0.7,0l0,0c0.3,0,0.7,0,1,0c0.2,0,0.3,0,0.5,0s0.5,0,0.7,0c0.5,0,1,0,1.5,0c0.2,0,0.5,0,0.7,0c0.7,0,1.4,0.1,2,0.1h0.1
		c0.7,0,1.5,0.1,2.2,0.2c0.1,0,0.2,0,0.3,0c0.1,0,0.2,0,0.3,0c0.5,0.1,1.1,0.1,1.6,0.2c0.1,0,0.3,0,0.4,0s0.2,0,0.3,0
		c0.5,0.1,1.1,0.1,1.6,0.2c0.1,0,0.3,0,0.4,0.1c0.1,0,0.1,0,0.2,0c0.7,0.1,1.5,0.2,2.2,0.4h0.1c0.7,0.1,1.4,0.3,2.1,0.4l0,0
		c0.2,0,0.4,0.1,0.6,0.1c0.5,0.1,1,0.2,1.6,0.4h0.1c0.2,0,0.4,0.1,0.6,0.1c0.5,0.1,1.1,0.3,1.6,0.4c0,0,0,0,0.1,0
		c0.2,0,0.3,0.1,0.5,0.1c0.7,0.2,1.4,0.4,2.1,0.6c0.1,0,0.2,0.1,0.3,0.1c0.6,0.2,1.2,0.4,1.8,0.6c0.2,0.1,0.4,0.1,0.6,0.2
		c0.5,0.2,1,0.4,1.5,0.5c0.2,0.1,0.4,0.2,0.7,0.2c0.5,0.2,1.1,0.4,1.6,0.6c0.2,0.1,0.3,0.1,0.5,0.2c0.7,0.3,1.4,0.6,2.1,0.9
		c0.1,0,0.2,0.1,0.3,0.1h0.1c0.6,0.3,1.1,0.5,1.6,0.8c0.1,0.1,0.3,0.1,0.4,0.2c0.1,0,0.2,0.1,0.2,0.1c0.5,0.2,1,0.5,1.4,0.7
		c0.2,0.1,0.3,0.2,0.5,0.2c0.1,0,0.1,0.1,0.2,0.1c0.6,0.3,1.1,0.6,1.6,0.9c0.1,0.1,0.2,0.1,0.3,0.2c0,0,0.1,0,0.1,0.1
		c0.7,0.4,1.3,0.8,2,1.2l0,0c0.2,0.1,0.3,0.2,0.5,0.3c0.5,0.3,1,0.6,1.5,0.9c0,0,0.1,0,0.1,0.1c0.2,0.1,0.4,0.2,0.5,0.4
		c0.5,0.3,0.9,0.6,1.4,0.9l0.1,0.1c0.2,0.1,0.3,0.2,0.5,0.3c0.6,0.4,1.1,0.8,1.7,1.2c0.1,0.1,0.2,0.1,0.2,0.2c0.6,0.5,1.3,1,1.9,1.4
		c0.2,0.1,0.4,0.3,0.5,0.4c0.4,0.4,0.9,0.7,1.3,1.1c0.2,0.2,0.4,0.4,0.6,0.5c0.4,0.4,0.9,0.7,1.3,1.1c0.2,0.2,0.4,0.3,0.6,0.5
		c0.6,0.5,1.2,1.1,1.8,1.7l0,0l0,0l0,0l0,0c0,0,0,0,0-0.1c-4.1-7.4-8.9-14.3-14.3-20.6c-0.1-0.1-0.1-0.1-0.2-0.2
		c-0.5-0.6-1-1.2-1.6-1.8c-0.1-0.1-0.2-0.3-0.4-0.4c-0.6-0.7-1.3-1.4-2-2.1l-0.1-0.1c-1.4-1.5-2.8-3-4.3-4.4
		c-0.2-0.2-0.3-0.3-0.5-0.5c-0.4-0.4-0.9-0.8-1.3-1.2c-0.3-0.3-0.6-0.5-0.9-0.8c-0.4-0.4-0.9-0.8-1.3-1.2c-0.2-0.2-0.4-0.3-0.6-0.5
		c-1.5-1.3-3.1-2.6-4.7-3.8c-0.6-0.5-1.3-1-1.9-1.4c-0.2-0.1-0.3-0.2-0.5-0.4c-0.6-0.4-1.1-0.8-1.7-1.2c-0.1-0.1-0.2-0.1-0.3-0.2
		c-0.6-0.4-1.3-0.9-2-1.3c-0.2-0.1-0.3-0.2-0.5-0.3c-0.5-0.4-1.1-0.7-1.6-1c-0.1-0.1-0.3-0.2-0.4-0.3c-0.7-0.4-1.3-0.8-2-1.2
		c-0.2-0.1-0.3-0.2-0.5-0.3c-0.5-0.3-1.1-0.6-1.6-0.9c-0.2-0.1-0.4-0.2-0.5-0.3c-0.7-0.4-1.4-0.7-2-1.1c-0.2-0.1-0.3-0.2-0.5-0.2
		c-0.6-0.3-1.1-0.6-1.7-0.8c-0.2-0.1-0.4-0.2-0.6-0.3c-0.7-0.3-1.4-0.6-2.1-0.9c-0.1-0.1-0.2-0.1-0.3-0.1c-0.6-0.3-1.2-0.5-1.8-0.8
		c-0.2-0.1-0.4-0.2-0.7-0.3c-0.7-0.3-1.3-0.5-2-0.7c-0.1,0-0.2-0.1-0.2-0.1c-0.7-0.3-1.4-0.5-2.1-0.7c-0.2-0.1-0.4-0.1-0.7-0.2
		c-0.6-0.2-1.2-0.4-1.8-0.6c-0.2,0-0.3-0.1-0.5-0.1c-0.7-0.2-1.4-0.4-2.2-0.6c-0.2-0.1-0.4-0.1-0.7-0.2c-0.6-0.2-1.2-0.3-1.8-0.4
		c-0.2,0-0.4-0.1-0.6-0.1c-0.7-0.2-1.5-0.3-2.2-0.5c-0.2,0-0.4-0.1-0.6-0.1c-0.6-0.1-1.2-0.2-1.8-0.3c-0.2,0-0.4-0.1-0.6-0.1
		c-0.8-0.1-1.5-0.2-2.3-0.3c-0.2,0-0.3,0-0.5-0.1c-0.6-0.1-1.3-0.2-1.9-0.2c-0.2,0-0.4,0-0.7-0.1c-0.8-0.1-1.6-0.1-2.3-0.2
		c-0.1,0-0.2,0-0.2,0c-0.7,0-1.4-0.1-2.2-0.1c-0.2,0-0.4,0-0.7,0c-0.7,0-1.5,0-2.2,0c-0.1,0-0.1,0-0.2,0c-0.1,0-0.2,0-0.3,0
		c-0.9,0-1.9,0-2.8,0.1c-0.3,0-0.7,0-1,0c-0.7,0-1.4,0.1-2.1,0.1c-0.4,0-0.8,0.1-1.1,0.1c-0.7,0.1-1.4,0.1-2.2,0.2
		c-0.3,0-0.7,0.1-1,0.1c-1,0.1-2.1,0.3-3.2,0.5c-0.1,0-0.2,0-0.2,0c-1,0.2-2,0.4-3,0.6c-0.3,0.1-0.7,0.2-1,0.2
		c-0.7,0.2-1.5,0.3-2.2,0.5c-0.4,0.1-0.8,0.2-1.1,0.3c-0.7,0.2-1.5,0.4-2.2,0.6c-0.3,0.1-0.7,0.2-1,0.3c-1.1,0.3-2.2,0.7-3.2,1
		c-14.6,5.2-27.1,14.2-27,32.9C8.7,94.6,8.8,106.8,12.7,120.8z"/>
	
		<linearGradient id="SVGID_5_" gradientUnits="userSpaceOnUse" x1="6.4228" y1="108.75" x2="101.4237" y2="108.75" gradientTransform="matrix(1 0 0 -1 0 260)">
		<stop  offset="6.926126e-08" style="stop-color:#D3D3D3"/>
		<stop  offset="1" style="stop-color:#BABABA"/>
	</linearGradient>
	<path class="st6" d="M58.1,130.5c3.3-6.8,7.3-13.1,12.2-18.9c0.1-0.1,0.1-0.1,0.2-0.2c0.4-0.4,0.8-0.9,1.2-1.3
		c0.5-0.5,0.9-1,1.4-1.5c0.4-0.4,0.8-0.9,1.2-1.3c0.5-0.5,1-1,1.4-1.5c0.4-0.4,0.9-0.8,1.3-1.2c0.4-0.4,0.8-0.8,1.2-1.1
		c0.1-0.1,0.2-0.2,0.3-0.3c0.5-0.4,0.9-0.8,1.4-1.2c0.5-0.4,1-0.9,1.6-1.3c0.5-0.4,1-0.8,1.4-1.1c0.4-0.3,0.8-0.6,1.2-0.9
		c0.1-0.1,0.3-0.2,0.4-0.3c0.5-0.4,1-0.7,1.5-1.1c0.6-0.4,1.1-0.8,1.7-1.2c0.5-0.4,1.1-0.7,1.6-1c0.4-0.3,0.8-0.5,1.2-0.8
		c3.3-2.1,6.9-4,10.6-5.6l0.1-0.1c0,0,0.1-0.1,0.1-0.2c0.1-0.2,0-0.3-0.1-0.5c-0.1-0.1-0.1-0.1-0.2-0.1l0,0l0,0
		c-0.8-0.1-1.6-0.1-2.4-0.1h-0.1c-0.2,0-0.4,0-0.6,0c-0.5,0-1.1,0-1.6,0c-0.3,0-0.7,0-1,0c-0.1,0-0.1,0-0.2,0c-0.2,0-0.5,0-0.7,0
		c-0.1,0-0.2,0-0.3,0c-0.3,0-0.7,0-1,0c-0.1,0-0.2,0-0.3,0c-0.2,0-0.3,0-0.5,0s-0.3,0-0.5,0c-0.3,0-0.7,0-1,0.1c-0.2,0-0.3,0-0.5,0
		s-0.3,0-0.5,0c-0.1,0-0.1,0-0.2,0c-0.3,0-0.7,0.1-1,0.1c-0.1,0-0.2,0-0.3,0c-0.2,0-0.5,0.1-0.7,0.1h-0.1c-0.3,0-0.7,0.1-1,0.1h-0.1
		c-0.3,0-0.5,0.1-0.8,0.1c-0.1,0-0.2,0-0.3,0c-0.3,0-0.7,0.1-1,0.1s-0.5,0.1-0.8,0.1c-0.2,0-0.3,0.1-0.5,0.1
		c-0.3,0.1-0.6,0.1-0.9,0.2c-0.2,0-0.5,0.1-0.7,0.1s-0.4,0.1-0.7,0.1c-0.3,0.1-0.7,0.1-1,0.2c0,0,0,0-0.1,0s-0.2,0-0.3,0.1
		c-0.3,0.1-0.6,0.1-0.9,0.2s-0.7,0.1-1,0.2c-0.1,0-0.1,0-0.2,0c-0.2,0-0.4,0.1-0.6,0.1s-0.3,0.1-0.5,0.1c-0.3,0.1-0.6,0.2-0.9,0.2
		c-0.3,0.1-0.5,0.1-0.8,0.2c-0.2,0.1-0.4,0.1-0.6,0.2s-0.5,0.1-0.7,0.2c-0.3,0.1-0.5,0.2-0.8,0.2C72,90.9,71.8,91,71.5,91
		c-0.2,0.1-0.3,0.1-0.5,0.2c-0.3,0.1-0.5,0.2-0.8,0.2c-0.4,0.1-0.7,0.2-1.1,0.4c-0.1,0-0.2,0.1-0.3,0.1c-0.2,0.1-0.4,0.1-0.6,0.2
		c-0.7,0.2-1.3,0.5-2,0.7c-1.1,0.4-2.2,0.8-3.2,1.3c-1.1,0.4-2.1,0.9-3.2,1.4c-1.1,0.5-2.1,1-3.2,1.5c-1.1,0.5-2.1,1.1-3.1,1.6
		c-1.6,0.8-3.1,1.7-4.6,2.6c-1,0.6-2,1.2-3,1.9c-0.5,0.3-1,0.6-1.5,1c-1,0.7-1.9,1.3-2.9,2c-1.9,1.4-3.8,2.8-5.6,4.3
		c-1.3,1.1-2.7,2.3-4,3.5c-0.4,0.4-0.9,0.8-1.3,1.2c-0.8,0.8-1.7,1.6-2.5,2.4c-1.2,1.2-2.4,2.5-3.5,3.8c-4.9,5.6-9,11.7-12.1,18.2
		c-0.5,1-0.9,2-1.4,3c-2.3,5.6-3.9,11.3-4.6,17.3c-0.2,1.6-0.3,3.2-0.3,4.9c0,0.5,0,1.1,0,1.6s0,1.1,0,1.6c0.1,2.2,0.3,4.4,0.6,6.6
		c1.4,8.9,6.3,16.8,13.5,22.3c2.1,1.6,4.2,3.1,6.4,4.5c1.5,1,2.9,1.9,4.4,2.7c1.5,0.9,3,1.7,4.5,2.5c3.8,2,7.8,3.8,11.9,5.3
		c3.3,1.2,6.7,2.2,10.1,3C45.2,187.7,45.7,156.2,58.1,130.5z"/>
	
		<linearGradient id="SVGID_6_" gradientUnits="userSpaceOnUse" x1="89.6938" y1="84.4" x2="225.8998" y2="84.4" gradientTransform="matrix(1 0 0 -1 0 260)">
		<stop  offset="6.926126e-08" style="stop-color:#D3D3D3"/>
		<stop  offset="1" style="stop-color:#BABABA"/>
	</linearGradient>
	<path class="st7" d="M143,179.6c-0.5,0-1,0-1.6,0c0,0,0,0-0.1,0c-1,0-2.1,0-3.1-0.1c-0.1,0-0.2,0-0.3,0c-1,0-2.1-0.1-3.1-0.2
		c-0.1,0-0.2,0-0.3,0c-1-0.1-2-0.2-3-0.3c-0.1,0-0.3,0-0.4,0c-1-0.1-2-0.3-3-0.4c-0.1,0-0.3,0-0.4-0.1c-1-0.2-2-0.3-2.9-0.5
		c-0.1,0-0.3-0.1-0.4-0.1c-1-0.2-1.9-0.4-2.9-0.6c-0.1,0-0.3-0.1-0.4-0.1c-1-0.2-1.9-0.5-2.9-0.8c-0.1,0-0.3-0.1-0.4-0.1
		c-1-0.3-1.9-0.6-2.9-0.9c-0.1,0-0.3-0.1-0.4-0.1c-1-0.3-1.9-0.7-2.8-1c-0.1-0.1-0.3-0.1-0.4-0.2c-0.9-0.4-1.9-0.7-2.8-1.1
		c-0.1-0.1-0.3-0.1-0.4-0.2c-0.9-0.4-1.9-0.8-2.8-1.3c-0.1-0.1-0.2-0.1-0.4-0.2c-0.9-0.5-1.9-0.9-2.8-1.4c-0.1-0.1-0.2-0.1-0.3-0.2
		c-0.9-0.5-1.9-1-2.8-1.6c-0.1-0.1-0.2-0.1-0.3-0.2c-0.9-0.6-1.9-1.1-2.8-1.7c-0.1,0-0.1-0.1-0.2-0.1c-1-0.6-1.9-1.3-2.8-1.9
		l-0.1-0.1c-1-0.7-1.9-1.4-2.9-2.1c3.6,7.7,8.3,14.7,13.8,20.9c0.7,0.8,1.4,1.5,2.1,2.3c0.2,0.2,0.4,0.4,0.6,0.6
		c0.6,0.6,1.2,1.2,1.8,1.8c0.1,0.1,0.3,0.3,0.4,0.4c0.7,0.7,1.5,1.4,2.2,2.1c0.2,0.2,0.4,0.3,0.6,0.5c0.6,0.5,1.2,1.1,1.9,1.6
		c0.2,0.2,0.4,0.3,0.6,0.5c0.8,0.6,1.6,1.3,2.4,1.9c0.2,0.1,0.3,0.2,0.5,0.3c0.7,0.5,1.4,1,2,1.5c0.2,0.2,0.5,0.3,0.7,0.5
		c0.8,0.6,1.6,1.1,2.5,1.7c0,0,0,0,0.1,0c0.8,0.6,1.7,1.1,2.6,1.6c0.2,0.1,0.5,0.3,0.7,0.4c0.7,0.4,1.4,0.8,2.2,1.3
		c0.2,0.1,0.3,0.2,0.5,0.3c0.9,0.5,1.8,1,2.7,1.4c0.2,0.1,0.5,0.2,0.7,0.4c0.7,0.4,1.4,0.7,2.2,1c0.2,0.1,0.5,0.2,0.7,0.3
		c0.9,0.4,1.8,0.8,2.8,1.2c0.2,0.1,0.4,0.1,0.5,0.2c0.8,0.3,1.6,0.6,2.3,0.9c0.3,0.1,0.5,0.2,0.8,0.3c0.9,0.3,1.9,0.7,2.8,1h0.1
		c1,0.3,1.9,0.6,2.9,0.9c0.3,0.1,0.5,0.2,0.8,0.2c0.8,0.2,1.6,0.5,2.4,0.7c0.2,0,0.4,0.1,0.6,0.2c1,0.2,2,0.5,2.9,0.7
		c0.3,0.1,0.5,0.1,0.8,0.2c0.8,0.2,1.6,0.3,2.4,0.5c0.3,0,0.5,0.1,0.8,0.1c1,0.2,2,0.3,3,0.5c0.2,0,0.4,0,0.5,0.1
		c0.8,0.1,1.7,0.2,2.5,0.3c0.3,0,0.6,0.1,0.8,0.1c1,0.1,2,0.2,3,0.2l0,0c1,0.1,2,0.1,3.1,0.1c0.3,0,0.6,0,0.8,0c1,0,2,0,3,0l0,0
		c1,0,2.1-0.1,3.1-0.1c0.2,0,0.4,0,0.6,0c1-0.1,2-0.2,3-0.3c0.2,0,0.4,0,0.6-0.1c1-0.1,2.1-0.2,3.1-0.4l0,0c1-0.2,2.1-0.3,3.1-0.5
		c0.2,0,0.4-0.1,0.6-0.1c1-0.2,2-0.4,3-0.6c0.2,0,0.4-0.1,0.5-0.1c2-0.5,4.1-1.1,6.1-1.7c0.2-0.1,0.4-0.1,0.6-0.2
		c1-0.3,1.9-0.7,2.9-1c0.2-0.1,0.4-0.1,0.5-0.2c1-0.4,2-0.8,3-1.2c9.3-3.9,16.6-9.3,19.8-18c1.1-2.9,1.7-6.2,1.8-9.9
		c0.1-2.6,0.1-5.2,0.1-7.7c0.1-11.2-0.3-22.3-3.6-34.1C203.6,163.1,173.4,179,143,179.6z"/>
	<path class="st8" d="M224.7,124.6c6.7-12.5,10.1-26.2,9.9-40.3c0-11.6-4.1-19.8-12.6-25l-2.1-1.3c-13.5-8.6-25.1-16-41.4-21.7
		L166.1,32c-8.9-13.5-21-23.6-35.5-29.4l0,0l0,0C128,1.5,125,1,122,1c-2.5,0-5,0.4-7.1,1.1h-0.1h-0.1C99.4,8.3,80.4,15.9,67.4,30.5
		l-7,7.9c-8.7,0.4-17.4,2-25.9,4.9C21.1,47.6,5.2,56,3.2,79.6c-0.2,1.9-0.1,7.1-0.1,9c-0.1,11.5,1,20.5,4.1,33.8l2.8,10.2
		c-2.7,4.8-4.8,9.7-6.4,14.7c-2.9,9.5-3.7,19.1-2.2,28.5C3,186,8.6,195.2,17.1,201.7c12.4,9.4,25.7,15.8,39.6,19.1l10.4,2.4
		c9.1,14.9,22.2,26.2,37.9,32.5l0,0l0,0c3,1.2,6.6,1.3,8.5,1.3c1.6,0,4-0.1,6.1-0.7c6.1-1.8,16.1-6.7,26.8-13
		c6.5-3.9,18-11.2,21.6-16.4l5.2-7.6c11.6-0.2,22.8-2.6,33.3-7.1c16.5-6.9,24.7-17.7,25.1-33.1c0.3-13.8,0.6-28.1-3.7-43.5
		L224.7,124.6z M182.6,43.9c1,0.4,1.9,0.8,2.9,1.2c1.9,0.8,3.7,1.6,5.5,2.5s3.5,1.8,5.2,2.7c0.9,0.5,1.7,0.9,2.5,1.4
		c1.7,0.9,3.4,1.9,5,2.9c2.5,1.5,5,3,7.5,4.6s5.1,3.2,7.7,4.9c2.4,1.5,4.3,3.2,5.7,5.1s2.4,4,3.1,6.3c0.8,2.7,1.1,5.7,1.1,8.8
		c0.3,18.2-5.9,34.8-16.2,48.4c-0.7,0.9-1.4,1.9-2.2,2.8c-0.8,0.9-1.5,1.8-2.3,2.7s-1.6,1.8-2.4,2.6c-0.8,0.9-1.7,1.7-2.5,2.5
		c-2.6,2.5-5.3,4.8-8.1,7c-1.9,1.4-3.9,2.8-5.9,4.1c-2.5,1.6-5.1,3.2-7.7,4.6c-1.1,0.6-2.1,1.1-3.2,1.6c-1.1,0.5-2.2,1-3.3,1.5
		c-0.5,0.2-1.1,0.5-1.7,0.7c-3.9,1.6-7.9,3-11.9,4.1c-0.9,0.2-1.8,0.5-2.7,0.7c-0.2,0-0.4,0.1-0.6,0.1l0,0l0,0
		c-0.9,0.2-1.8,0.4-2.7,0.6l0,0c-0.9,0.2-1.8,0.4-2.7,0.5c-0.2,0-0.5,0.1-0.7,0.1c-0.9,0.2-1.8,0.3-2.7,0.4l0,0
		c-0.9,0.1-1.8,0.2-2.7,0.3c-0.2,0-0.5,0-0.7,0.1c-0.9,0.1-1.8,0.2-2.7,0.2c0,0,0,0-0.1,0c-0.9,0.1-1.8,0.1-2.7,0.1
		c-0.1,0-0.2,0-0.3,0s-0.1,0-0.2,0c-0.1,0-0.1,0-0.2,0c-0.9,0-1.8,0-2.8,0c-0.2,0-0.4,0-0.6,0l0,0c-0.2,0-0.3,0-0.5,0
		c-0.3,0-0.6,0-1,0s-0.7,0-1.1,0c-0.3,0-0.6,0-0.9,0c-0.1,0-0.2,0-0.3,0l0,0h-0.1l0,0c-0.3,0-0.6,0-0.8,0c-0.3,0-0.5,0-0.8,0
		c-0.7,0-1.4-0.1-2.1-0.2c7.8-2.6,14.8-6.2,21-10.5v0.2l0.3-0.4c13.5-9.5,23.4-22.6,29.3-37.4c1.6-3.9,2.8-7.9,3.9-11.9
		c0.4-1.6,0.8-3.3,1.1-4.9c0.3-1.7,0.6-3.3,0.9-5c0.2-1.7,0.4-3.4,0.6-5.1c0.2-1.7,0.3-3.4,0.4-5.1c0.1-1.7,0.1-3.4,0.1-5.1
		c0-4.3-0.3-8.6-0.9-12.9c-0.4-3.4-1.1-6.9-1.9-10.3c-0.6-2.5-1.3-5.1-2.1-7.6c-0.5-1.7-1.1-3.3-1.7-5c-0.9-2.5-1.9-4.9-3.1-7.4l0,0
		C178.6,42.4,180.6,43.2,182.6,43.9z M116.9,7.5c0.4-0.1,0.8-0.3,1.2-0.4c0.1,0,0.3-0.1,0.4-0.1c0.3-0.1,0.6-0.1,0.9-0.2
		c0.2,0,0.4,0,0.6-0.1c0.3,0,0.6-0.1,0.9-0.1c0.2,0,0.4,0,0.6,0s0.4,0,0.5,0s0.2,0,0.3,0c0.3,0,0.6,0,0.9,0c0.2,0,0.4,0,0.7,0
		c0.3,0,0.6,0.1,1,0.1c0.2,0,0.4,0.1,0.6,0.1c0.3,0.1,0.7,0.1,1,0.2c0.2,0,0.3,0.1,0.5,0.1c0.5,0.1,1,0.3,1.4,0.5
		c22.5,9,37.3,28.6,43.7,51.1c0.6,2.2,1.2,4.5,1.7,6.8c0.2,1.1,0.5,2.3,0.7,3.5c0.4,2.3,0.7,4.6,0.9,7c0.5,4.7,0.6,9.4,0.3,14.1
		c-0.1,2.3-0.3,4.7-0.6,7c-0.1,1.2-0.3,2.3-0.5,3.5c-0.1,0.8-0.3,1.7-0.4,2.5c-1.3,6.7-3.3,13.2-6,19.3c-2.4,5.4-5.4,10.5-9,15.1
		c4.7-27.7-4.5-52.7-21.5-71.2c-16.4-17.9-40.2-29.8-65.9-32.2C83.5,21,101,13.9,116.9,7.5z M9.5,80.4C9.4,61.7,21.1,53.6,36.2,48.8
		c1.1-0.4,2.2-0.7,3.2-1c0.3-0.1,0.7-0.2,1-0.3c0.7-0.2,1.5-0.4,2.2-0.6c0.4-0.1,0.8-0.2,1.1-0.3c0.7-0.2,1.5-0.3,2.2-0.5
		c0.3-0.1,0.7-0.2,1-0.2c1-0.2,2-0.4,3-0.6c0.1,0,0.2,0,0.2,0c1.1-0.2,2.1-0.3,3.2-0.5c0.3,0,0.7-0.1,1-0.1c0.7-0.1,1.5-0.2,2.2-0.2
		c0.4,0,0.8-0.1,1.1-0.1c0.7-0.1,1.4-0.1,2.1-0.1c0.3,0,0.7,0,1,0c0.9,0,1.9-0.1,2.8-0.1c0.1,0,0.2,0,0.3,0l0,0c0.1,0,0.1,0,0.2,0
		c0.7,0,1.5,0,2.2,0c0.2,0,0.4,0,0.7,0c0.7,0,1.4,0.1,2.2,0.1c0.1,0,0.2,0,0.2,0c0.8,0.1,1.6,0.1,2.3,0.2c0.2,0,0.4,0,0.7,0.1
		c0.6,0.1,1.3,0.1,1.9,0.2c0.2,0,0.3,0,0.5,0.1c0.8,0.1,1.5,0.2,2.3,0.3c0.2,0,0.4,0.1,0.6,0.1c0.6,0.1,1.2,0.2,1.8,0.3
		c0.2,0,0.4,0.1,0.6,0.1c0.7,0.1,1.5,0.3,2.2,0.5c0.2,0,0.4,0.1,0.6,0.1c0.6,0.1,1.2,0.3,1.8,0.4c0.2,0.1,0.4,0.1,0.7,0.2
		c0.7,0.2,1.5,0.4,2.2,0.6c0.2,0,0.3,0.1,0.5,0.1c0.6,0.2,1.2,0.4,1.8,0.6c0.2,0.1,0.5,0.1,0.7,0.2c0.7,0.2,1.4,0.5,2.1,0.7
		c0.1,0,0.2,0.1,0.2,0.1c0.7,0.2,1.3,0.5,2,0.7c0.2,0.1,0.4,0.2,0.7,0.3c0.6,0.2,1.2,0.5,1.8,0.8c0.1,0,0.2,0.1,0.3,0.1
		c0.7,0.3,1.4,0.6,2.1,0.9c0.2,0.1,0.4,0.2,0.6,0.3c0.6,0.3,1.1,0.5,1.7,0.8c0.2,0.1,0.3,0.2,0.5,0.2c0.7,0.3,1.4,0.7,2,1.1
		c0.2,0.1,0.4,0.2,0.5,0.3c0.5,0.3,1.1,0.6,1.6,0.9c0.2,0.1,0.3,0.2,0.5,0.3c0.7,0.4,1.3,0.8,2,1.2c0.1,0.1,0.3,0.2,0.4,0.3
		c0.6,0.3,1.1,0.7,1.6,1c0.2,0.1,0.3,0.2,0.5,0.3c0.7,0.4,1.3,0.9,2,1.3c0.1,0.1,0.2,0.1,0.3,0.2c0.6,0.4,1.1,0.8,1.7,1.2
		c0.2,0.1,0.3,0.2,0.5,0.4c0.6,0.5,1.3,0.9,1.9,1.4c1.6,1.2,3.2,2.5,4.7,3.8c0.2,0.2,0.4,0.3,0.6,0.5l0,0c0.4,0.4,0.9,0.8,1.3,1.2
		l0,0c0.3,0.3,0.6,0.5,0.9,0.8l0,0c0.4,0.4,0.9,0.8,1.3,1.2l0,0c0.2,0.2,0.3,0.3,0.5,0.5c1.5,1.4,2.9,2.9,4.3,4.4l0.1,0.1l0,0
		c0.7,0.7,1.3,1.4,2,2.1l0,0c0.1,0.1,0.2,0.3,0.4,0.4l0,0c0.5,0.6,1,1.2,1.6,1.8l0,0c0.1,0.1,0.1,0.1,0.2,0.2
		c5.4,6.3,10.1,13.2,14.3,20.6c0,0,0,0,0,0.1l0,0l0,0l0,0l0,0c-0.6-0.6-1.2-1.1-1.8-1.7c-0.2-0.2-0.4-0.3-0.6-0.5
		c-0.4-0.4-0.9-0.8-1.3-1.1c-0.2-0.2-0.4-0.4-0.6-0.5c-0.4-0.4-0.9-0.7-1.3-1.1c-0.2-0.1-0.4-0.3-0.5-0.4c-0.6-0.5-1.2-1-1.9-1.4
		c-0.1-0.1-0.2-0.1-0.2-0.2c-0.6-0.4-1.1-0.8-1.7-1.2c-0.1-0.1-0.2-0.2-0.3-0.2l-0.1-0.1l-0.1-0.1c-0.5-0.3-0.9-0.6-1.4-0.9
		c-0.1-0.1-0.2-0.1-0.3-0.2s-0.2-0.1-0.3-0.2c0,0-0.1,0-0.1-0.1c-0.5-0.3-1-0.6-1.5-0.9c-0.1-0.1-0.3-0.2-0.4-0.2c0,0-0.1,0-0.1-0.1
		l0,0c-0.7-0.4-1.3-0.8-2-1.2l0,0c0,0,0,0-0.1,0c-0.1-0.1-0.2-0.1-0.3-0.2c-0.5-0.3-1.1-0.6-1.6-0.9c-0.1,0-0.1-0.1-0.2-0.1
		c-0.1-0.1-0.3-0.1-0.4-0.2c0,0,0,0-0.1,0c-0.5-0.2-1-0.5-1.4-0.7c-0.1,0-0.2-0.1-0.2-0.1c-0.1,0-0.2-0.1-0.2-0.1
		c-0.1,0-0.1-0.1-0.2-0.1c-0.5-0.3-1.1-0.5-1.6-0.8h-0.1l0,0c-0.1,0-0.2-0.1-0.3-0.1c-0.7-0.3-1.4-0.6-2.1-0.9
		c-0.2-0.1-0.3-0.1-0.5-0.2c-0.5-0.2-1.1-0.4-1.6-0.6c-0.2-0.1-0.4-0.2-0.7-0.2c-0.5-0.2-1-0.4-1.5-0.5c-0.2-0.1-0.4-0.2-0.6-0.2
		c-0.6-0.2-1.2-0.4-1.8-0.6c-0.1,0-0.2-0.1-0.3-0.1c-0.7-0.2-1.4-0.4-2.1-0.6c-0.2,0-0.3-0.1-0.5-0.1l0,0c0,0,0,0-0.1,0
		c-0.5-0.1-1.1-0.3-1.6-0.4c-0.1,0-0.3-0.1-0.4-0.1s-0.1,0-0.2,0h-0.1c-0.5-0.1-1-0.2-1.6-0.4c-0.2,0-0.3-0.1-0.5-0.1h-0.1l0,0
		c-0.7-0.1-1.4-0.3-2.1-0.4h-0.1c-0.7-0.1-1.5-0.3-2.2-0.4l0,0c-0.1,0-0.1,0-0.2,0s-0.3,0-0.4-0.1c-0.5-0.1-1.1-0.2-1.6-0.2
		c-0.1,0-0.2,0-0.3,0c-0.1,0-0.2,0-0.4,0c0,0,0,0-0.1,0c-0.5-0.1-1.1-0.1-1.6-0.2c-0.1,0-0.2,0-0.3,0c-0.1,0-0.1,0-0.2,0
		s-0.1,0-0.2,0c-0.7-0.1-1.5-0.1-2.2-0.2h-0.1c-0.7,0-1.4-0.1-2-0.1c-0.2,0-0.5,0-0.7,0c-0.5,0-1,0-1.5,0c-0.2,0-0.5,0-0.7,0
		s-0.3,0-0.5,0c-0.3,0-0.7,0-1,0l0,0l0,0c-0.2,0-0.4,0-0.7,0c-0.7,0-1.3,0-2,0.1c-0.1,0-0.1,0-0.2,0c-0.7,0-1.5,0.1-2.2,0.1
		c-0.1,0-0.3,0-0.4,0h-0.1c-0.1,0-0.1,0-0.2,0c-0.5,0-1,0.1-1.5,0.1c-0.1,0-0.2,0-0.3,0c-0.1,0-0.2,0-0.3,0c-0.1,0-0.1,0-0.2,0
		c-0.5,0-1,0.1-1.4,0.2c-0.1,0-0.1,0-0.2,0s-0.3,0-0.4,0.1c-0.1,0-0.1,0-0.2,0c-0.5,0.1-1,0.1-1.5,0.2h-0.1c-0.2,0-0.3,0-0.5,0.1
		h-0.1c-0.7,0.1-1.5,0.2-2.2,0.4C52,84.1,28.1,99,12.7,120.8C8.8,106.8,9.5,93.7,9.5,80.4z M47.9,212.1c-4.1-1.5-8.1-3.3-11.9-5.3
		c-1.5-0.8-3-1.6-4.5-2.5s-3-1.8-4.4-2.7c-2.2-1.4-4.3-2.9-6.4-4.5c-7.2-5.4-12.1-13.4-13.5-22.3c-0.4-2.2-0.6-4.4-0.6-6.6
		c0-0.5,0-1.1,0-1.6s0-1.1,0-1.6c0-1.6,0.1-3.3,0.3-4.9c0.7-5.9,2.2-11.7,4.6-17.3c0.4-1,0.9-2,1.4-3c3.1-6.5,7.2-12.6,12.1-18.2
		c1.1-1.3,2.3-2.6,3.5-3.8c0.8-0.8,1.6-1.6,2.5-2.4c0.4-0.4,0.8-0.8,1.3-1.2c1.3-1.2,2.6-2.3,4-3.5c1.8-1.5,3.7-2.9,5.6-4.3
		c1-0.7,1.9-1.4,2.9-2c0.5-0.3,1-0.7,1.5-1c1-0.6,2-1.3,3-1.9c1.5-0.9,3-1.8,4.6-2.6c1-0.6,2.1-1.1,3.1-1.6c1.1-0.5,2.1-1,3.2-1.5
		c1.1-0.5,2.1-0.9,3.2-1.4c1.1-0.4,2.2-0.9,3.2-1.3c0.7-0.2,1.3-0.5,2-0.7c0.2-0.1,0.4-0.1,0.6-0.2c0,0,0,0,0.1,0s0.1,0,0.2-0.1
		c0.4-0.1,0.7-0.2,1.1-0.4c0.3-0.1,0.5-0.2,0.8-0.2h0.1c0.1,0,0.3-0.1,0.4-0.1c0.3-0.1,0.5-0.2,0.8-0.2c0.3-0.1,0.5-0.2,0.8-0.2
		c0.1,0,0.1,0,0.2-0.1c0.2-0.1,0.4-0.1,0.5-0.2c0.2-0.1,0.4-0.1,0.6-0.2c0.3-0.1,0.5-0.1,0.8-0.2c0.1,0,0.2,0,0.2-0.1
		c0.2-0.1,0.5-0.1,0.7-0.2c0.2,0,0.3-0.1,0.5-0.1s0.4-0.1,0.6-0.1c0.1,0,0.1,0,0.2,0h0.1c0.2,0,0.4-0.1,0.6-0.1c0.1,0,0.2,0,0.3-0.1
		c0.3-0.1,0.6-0.1,0.9-0.2c0.1,0,0.2,0,0.3-0.1c0,0,0,0,0.1,0l0,0c0.2-0.1,0.5-0.1,0.7-0.2c0.1,0,0.2,0,0.3-0.1
		c0.2,0,0.4-0.1,0.7-0.1c0.2,0,0.5-0.1,0.7-0.1s0.4-0.1,0.5-0.1s0.2,0,0.4-0.1c0.2,0,0.3-0.1,0.5-0.1c0.3,0,0.5-0.1,0.8-0.1
		c0.2,0,0.3-0.1,0.5-0.1s0.3,0,0.5-0.1c0.1,0,0.2,0,0.3,0c0.3,0,0.5-0.1,0.8-0.1h0.1c0.1,0,0.3,0,0.4-0.1c0.1,0,0.2,0,0.4,0
		c0.1,0,0.2,0,0.3,0h0.1c0.2,0,0.5-0.1,0.7-0.1c0.1,0,0.2,0,0.3,0c0.1,0,0.2,0,0.3,0c0.2,0,0.5,0,0.7-0.1c0,0,0,0,0.1,0s0.1,0,0.2,0
		c0.2,0,0.3,0,0.5,0s0.3,0,0.5,0c0.1,0,0.1,0,0.2,0c0.3,0,0.5,0,0.8,0h0.1c0.2,0,0.3,0,0.5,0s0.3,0,0.5,0c0.1,0,0.2,0,0.3,0h0.1
		c0.2,0,0.4,0,0.7,0c0.1,0,0.2,0,0.2,0c0.1,0,0.2,0,0.3,0c0.2,0,0.5,0,0.7,0c0.1,0,0.1,0,0.2,0c0.2,0,0.4,0,0.6,0h0.1
		c0.1,0,0.1,0,0.2,0s0.1,0,0.2,0c0.5,0,1.1,0,1.6,0c0.1,0,0.3,0,0.4,0s0.1,0,0.2,0h0.1c0.8,0,1.6,0.1,2.4,0.1l0,0l0,0l0,0
		c0.1,0,0.2,0,0.2,0.1c0.1,0.1,0.1,0.3,0.1,0.5c0,0.1,0,0.1-0.1,0.2l-0.1,0.1c-3.7,1.7-7.3,3.5-10.6,5.6c-0.4,0.3-0.8,0.5-1.2,0.8
		l0,0c-0.5,0.3-1.1,0.7-1.6,1l0,0c-0.6,0.4-1.1,0.8-1.7,1.2l0,0c-0.5,0.4-1,0.7-1.5,1.1l0,0c-0.1,0.1-0.3,0.2-0.4,0.3
		c-0.4,0.3-0.8,0.6-1.2,0.9l0,0c-0.5,0.4-1,0.8-1.4,1.1l0,0c-0.5,0.4-1,0.9-1.6,1.3l0,0c-0.5,0.4-0.9,0.8-1.4,1.2l0,0
		c-0.1,0.1-0.2,0.2-0.3,0.3c-0.4,0.4-0.8,0.7-1.2,1.1l0,0c-0.4,0.4-0.9,0.8-1.3,1.2l0,0c-0.5,0.5-1,1-1.4,1.5l0,0
		c-0.4,0.4-0.8,0.8-1.2,1.3l0,0c-0.5,0.5-0.9,1-1.4,1.5l0,0c-0.4,0.4-0.8,0.9-1.2,1.3l0,0c-0.1,0.1-0.1,0.1-0.2,0.2
		c-4.9,5.8-9,12.1-12.2,18.9c-12.4,25.7-12.9,57.2-0.1,84.7C54.6,214.3,51.2,213.3,47.9,212.1z M118,250.7c-0.2,0-0.3,0.1-0.5,0.1
		c-0.1,0-0.1,0-0.2,0s-0.2,0.1-0.4,0.1c-0.1,0-0.1,0-0.2,0s-0.2,0-0.4,0.1c-0.1,0-0.2,0-0.2,0c-0.1,0-0.3,0-0.4,0s-0.2,0-0.2,0
		c-0.2,0-0.3,0-0.5,0c-0.1,0-0.1,0-0.2,0c-0.2,0-0.5,0-0.7,0H114c-0.2,0-0.3,0-0.5,0c0,0,0,0-0.1,0c-0.2,0-0.4,0-0.6,0
		c-0.1,0-0.1,0-0.2,0c-0.3,0-0.5,0-0.8,0c-0.1,0-0.1,0-0.2,0c-0.2,0-0.4,0-0.6,0c-0.1,0-0.2,0-0.3,0c-0.2,0-0.3,0-0.5-0.1
		c-0.1,0-0.2,0-0.3,0c-0.2,0-0.3,0-0.5-0.1c-0.1,0-0.2,0-0.3-0.1c-0.2,0-0.3-0.1-0.4-0.1s-0.2,0-0.3-0.1c-0.2,0-0.3-0.1-0.5-0.1
		c-0.1,0-0.1,0-0.2-0.1c-0.2-0.1-0.4-0.1-0.6-0.2c-5-2-9.6-4.5-13.8-7.4c-0.5-0.4-1.1-0.7-1.6-1.1c-1-0.7-2-1.5-3-2.3
		c-0.5-0.4-1-0.8-1.5-1.2c-1.4-1.2-2.8-2.5-4.2-3.9c-0.4-0.4-0.9-0.9-1.3-1.4c-1.7-1.8-3.3-3.7-4.9-5.7c-0.4-0.5-0.8-1-1.1-1.5
		c-1.1-1.5-2.2-3.1-3.2-4.7c-1.3-2.1-2.6-4.3-3.7-6.6c-1.4-2.8-2.7-5.7-3.8-8.7c-2-5.3-3.5-10.9-4.5-16.5c-0.3-1.9-0.6-3.8-0.8-5.7
		c-1.4-12.1-0.5-24.5,2.6-36.3c0.3-1.1,0.6-2.3,1-3.4c1.8-5.7,4.1-11.1,6.9-16.3c1.1-2.1,2.4-4.1,3.7-6.1l0,0l0,0l0,0l0,0l0,0
		c0,0,0,0,0,0.1c-0.6,5-0.7,9.8-0.5,14.5c0,0.6,0.1,1.1,0.1,1.7l0,0c0,0.6,0.1,1.1,0.1,1.7l0,0c0,0.6,0.1,1.2,0.2,1.8l0,0
		c0.1,0.5,0.1,1.1,0.2,1.6l0,0c0.1,0.6,0.2,1.2,0.3,1.8l0,0c0.1,0.5,0.1,1.1,0.2,1.6l0,0c0,0,0,0,0,0.1c0.2,1.1,0.4,2.2,0.6,3.3
		c0.1,0.6,0.3,1.1,0.4,1.7l0,0c0.1,0.5,0.2,1,0.3,1.5l0,0c0.1,0.6,0.3,1.2,0.5,1.7l0,0c0.1,0.5,0.3,1,0.4,1.5l0,0l0,0
		c1.9,6.4,4.5,12.4,7.7,18c1,1.7,2,3.4,3.1,5.1c1.1,1.6,2.2,3.3,3.4,4.8c1.2,1.6,2.5,3.1,3.8,4.6c2.6,3,5.4,5.8,8.4,8.4
		c1.5,1.3,3,2.6,4.6,3.8c2.3,1.9,4.8,3.6,7.3,5.3c6.7,4.4,13.9,8,21.5,10.9c0.9,0.4,1.9,0.7,2.9,1c1.9,0.7,3.8,1.3,5.8,1.8
		c5.8,1.7,11.8,2.8,17.9,3.5C158.6,230.1,130,247.2,118,250.7z M225.9,171.2c0,2.6-0.1,5.2-0.1,7.7c-0.1,3.7-0.7,7-1.8,9.9
		c-3.2,8.8-10.5,14.2-19.8,18c-1,0.4-2,0.8-3,1.2c-0.2,0.1-0.4,0.1-0.5,0.2c-1,0.4-1.9,0.7-2.9,1c-0.2,0.1-0.4,0.1-0.6,0.2
		c-2,0.7-4,1.2-6.1,1.7c-0.2,0-0.4,0.1-0.5,0.1c-1,0.2-2,0.4-3,0.6c-0.2,0-0.4,0.1-0.6,0.1c-1,0.2-2.1,0.4-3.1,0.5l0,0
		c-1,0.2-2.1,0.3-3.1,0.4c-0.2,0-0.4,0-0.6,0.1c-1,0.1-2,0.2-3,0.3c-0.2,0-0.4,0-0.6,0c-1,0.1-2.1,0.1-3.1,0.1l0,0c-0.7,0-1.3,0-2,0
		c-0.3,0-0.6,0-0.9,0c-0.3,0-0.6,0-0.8,0c-1,0-2-0.1-3.1-0.1l0,0c-1-0.1-2-0.1-3-0.2c-0.3,0-0.6-0.1-0.8-0.1
		c-0.8-0.1-1.7-0.2-2.5-0.3c-0.2,0-0.4,0-0.5-0.1c-1-0.1-2-0.3-3-0.5c-0.3,0-0.5-0.1-0.8-0.1c-0.8-0.1-1.6-0.3-2.4-0.5
		c-0.3-0.1-0.5-0.1-0.8-0.2c-1-0.2-2-0.4-2.9-0.7c-0.2,0-0.4-0.1-0.6-0.2c-0.8-0.2-1.6-0.4-2.4-0.7c-0.3-0.1-0.5-0.2-0.8-0.2
		c-1-0.3-1.9-0.6-2.9-0.9h-0.1c-0.9-0.3-1.9-0.6-2.8-1c-0.3-0.1-0.5-0.2-0.8-0.3c-0.8-0.3-1.6-0.6-2.3-0.9c-0.2-0.1-0.4-0.1-0.5-0.2
		c-0.9-0.4-1.8-0.8-2.8-1.2c-0.2-0.1-0.5-0.2-0.7-0.3c-0.7-0.3-1.4-0.7-2.2-1c-0.2-0.1-0.5-0.2-0.7-0.4c-0.9-0.5-1.8-0.9-2.7-1.4
		c-0.2-0.1-0.3-0.2-0.5-0.3c-0.7-0.4-1.5-0.8-2.2-1.3c-0.2-0.1-0.5-0.3-0.7-0.4c-0.9-0.5-1.7-1.1-2.6-1.6c0,0,0,0-0.1,0
		c-0.8-0.5-1.7-1.1-2.5-1.7c-0.2-0.2-0.5-0.3-0.7-0.5c-0.7-0.5-1.4-1-2-1.5c-0.2-0.1-0.3-0.2-0.5-0.3c-0.8-0.6-1.6-1.2-2.4-1.9
		c-0.2-0.2-0.4-0.3-0.6-0.5c-0.6-0.5-1.2-1.1-1.9-1.6c-0.2-0.2-0.4-0.3-0.6-0.5c-0.8-0.7-1.5-1.4-2.2-2.1c-0.1-0.1-0.3-0.3-0.4-0.4
		c-0.6-0.6-1.2-1.2-1.8-1.8c-0.2-0.2-0.4-0.4-0.6-0.6c-0.7-0.7-1.4-1.5-2.1-2.3c-5.5-6.2-10.2-13.2-13.8-20.9
		c0.9,0.7,1.9,1.4,2.9,2.1l0.1,0.1c0.9,0.7,1.9,1.3,2.8,1.9c0.1,0,0.1,0.1,0.2,0.1c0.9,0.6,1.9,1.2,2.8,1.7c0.1,0.1,0.2,0.1,0.3,0.2
		c0.9,0.5,1.9,1.1,2.8,1.6c0.1,0.1,0.2,0.1,0.3,0.2c0.9,0.5,1.9,1,2.8,1.4c0.1,0.1,0.2,0.1,0.4,0.2c0.9,0.4,1.9,0.9,2.8,1.3
		c0.1,0.1,0.3,0.1,0.4,0.2c0.9,0.4,1.9,0.8,2.8,1.1c0.1,0.1,0.3,0.1,0.4,0.2c0.9,0.4,1.9,0.7,2.8,1c0.1,0,0.3,0.1,0.4,0.1
		c0.9,0.3,1.9,0.6,2.9,0.9c0.1,0,0.3,0.1,0.4,0.1c1,0.3,1.9,0.5,2.9,0.8c0.1,0,0.3,0.1,0.4,0.1c1,0.2,1.9,0.4,2.9,0.6
		c0.1,0,0.3,0.1,0.4,0.1c1,0.2,2,0.4,2.9,0.5c0.1,0,0.3,0,0.4,0.1c1,0.2,2,0.3,3,0.4c0.1,0,0.3,0,0.4,0c1,0.1,2,0.2,3,0.3
		c0.1,0,0.2,0,0.3,0c1,0.1,2.1,0.1,3.1,0.2c0.1,0,0.2,0,0.3,0c1,0,2.1,0.1,3.1,0.1c0,0,0,0,0.1,0c0.5,0,1,0,1.6,0
		c30.3-0.5,60.6-16.4,79.2-42.4C225.6,148.9,226,160,225.9,171.2z"/>
</g>
</svg>
